<?xml version="1.0" encoding="utf-8"?>
<!DOCTYPE svg PUBLIC "-//W3C//DTD SVG 20010904//EN" "http://www.w3.org/TR/2001/REC-SVG-20010904/DTD/svg10.dtd">
<svg version="1.0" xmlns="http://www.w3.org/2000/svg" width="1000px" height="1000px" viewBox="0 0 1000 1000" preserveAspectRatio="xMidYMid meet">
 <g fill="#ffffff">
  <path d="M741 928.5 c-0.5 -1.4 -1 -3.1 -1 -3.6 0 -0.5 -0.4 -0.9 -1 -0.9 -0.5 0 -0.9 -0.3 -0.8 -0.7 0.2 -1.1 -4.4 -10.5 -5.9 -12.1 -0.7 -0.7 -1.3 -2 -1.3 -2.7 0 -0.7 -0.6 -2 -1.2 -2.7 -0.7 -0.7 -1.3 -1.7 -1.3 -2.3 -0.1 -1.4 -4.8 -10.8 -6.2 -12.2 -0.6 -0.7 -1.7 -2.9 -2.3 -4.8 -0.6 -1.9 -1.6 -3.5 -2.1 -3.5 -0.5 0 -0.8 -0.3 -0.7 -0.7 0.2 -1 -4.5 -10.7 -5.4 -11.1 -0.4 -0.2 -1.2 -1.9 -1.8 -3.8 -0.6 -1.9 -1.6 -3.4 -2.1 -3.4 -0.6 0 -0.7 -0.4 -0.4 -1 0.3 -0.5 0.2 -1 -0.2 -1 -0.5 0 -1.7 -2.2 -2.8 -5 -1.1 -2.7 -2.3 -5 -2.6 -5 -0.4 0 -1.5 -2 -2.5 -4.5 -0.9 -2.5 -2.1 -4.5 -2.6 -4.5 -0.5 0 -0.6 -0.4 -0.3 -1 0.3 -0.5 0.2 -1 -0.2 -1 -0.5 0 -1.7 -2.2 -2.8 -5 -1.1 -2.7 -2.2 -5 -2.6 -5 -0.4 0 -1.4 -1.9 -2.4 -4.2 -0.9 -2.4 -2 -4.5 -2.3 -4.8 -0.4 -0.3 -2.7 -4.5 -5.2 -9.5 -2.5 -4.9 -4.9 -9.3 -5.5 -9.7 -0.5 -0.4 -0.6 -0.8 -0.2 -0.8 0.5 0 0.1 -0.7 -0.8 -1.6 -0.9 -1 -1.4 -2.5 -1.2 -3.6 0.3 -1 0.2 -1.6 -0.1 -1.4 -0.6 0.4 -3.4 -2 -3.1 -2.6 0.2 -0.5 -4.6 -10.3 -5.3 -10.8 -0.3 -0.3 -1.4 -2.4 -2.3 -4.8 -1 -2.3 -2 -4.2 -2.4 -4.2 -0.4 0 -1.5 -2.2 -2.6 -5 -1.1 -2.7 -2.3 -5 -2.8 -5 -0.4 0 -0.5 -0.4 -0.2 -1 0.3 -0.5 0.2 -1 -0.4 -1 -0.5 0 -1.5 -1.6 -2.1 -3.5 -0.6 -1.9 -1.6 -3.5 -2.1 -3.5 -0.6 0 -0.7 -0.4 -0.4 -1 0.3 -0.5 0.3 -1 -0.2 -1 -0.4 0 -1.7 -2.1 -2.7 -4.8 -1.1 -2.6 -2.6 -5.3 -3.3 -6 -0.7 -0.7 -1.7 -3.1 -2.3 -5.2 -0.6 -2.2 -1.4 -4 -1.8 -4 -0.4 0 -1.6 -2.2 -2.7 -5 -1.1 -2.7 -2.3 -5 -2.8 -5 -0.4 0 -0.5 -0.4 -0.2 -1 0.3 -0.5 0.2 -1 -0.4 -1 -0.5 0 -1.5 -1.6 -2.1 -3.5 -0.6 -1.9 -1.6 -3.5 -2.1 -3.5 -0.6 0 -0.7 -0.4 -0.4 -1 0.3 -0.5 0.2 -1 -0.2 -1 -0.5 0 -1.7 -2.5 -2.8 -5.5 -1 -3 -2.2 -5.5 -2.6 -5.5 -0.4 0 -1.3 -1.6 -1.9 -3.5 -0.6 -1.9 -1.7 -4.1 -2.3 -4.8 -1.3 -1.3 -3.6 -6.8 -4.4 -10.4 -0.3 -1.3 -1 -2.3 -1.5 -2.3 -0.5 0 -0.6 -0.4 -0.3 -1 0.3 -0.5 0.2 -1 -0.3 -1 -0.4 0 -1.4 -2.2 -2.1 -5 -0.7 -2.7 -1.7 -5 -2.3 -5 -0.5 0 -0.6 -0.4 -0.3 -1 0.3 -0.5 0.2 -1 -0.3 -1 -0.6 0 -1.7 -2 -2.5 -4.4 -1.3 -3.8 -1.3 -4.7 -0.2 -5.6 1.1 -0.9 2.2 -0.7 4.9 0.5 1.9 0.9 4 1.4 4.5 1 0.6 -0.3 1.1 -0.2 1.1 0.3 0 0.5 5.3 2 11.8 3.2 6.4 1.3 12 2.8 12.3 3.3 0.4 0.5 1.2 0.6 1.8 0.3 0.6 -0.4 1.1 -0.3 1.1 0.2 0 0.5 2 1.3 4.5 1.7 2.5 0.3 4.4 0.9 4.1 1.3 -0.2 0.4 1.5 0.8 3.8 0.8 2.3 0.1 5.9 0.9 7.9 1.9 2 0.9 4.1 1.4 4.6 1 0.6 -0.3 1.1 -0.2 1.1 0.3 0 1 10.9 3.7 11.7 2.9 0.6 -0.7 -3 -26.1 -3.8 -26.5 -0.3 -0.1 -0.4 -1.4 -0.1 -2.7 0.2 -1.4 0 -2.5 -0.5 -2.5 -0.6 0 -1.8 -5.7 -2.8 -12.7 -0.9 -7.1 -2.1 -13 -2.4 -13.3 -0.4 -0.3 -1.6 -6.1 -2.6 -13 -1 -6.9 -2.1 -12.7 -2.5 -13 -0.3 -0.3 -1.5 -6.1 -2.5 -13 -1 -6.9 -2.1 -12.7 -2.5 -13 -0.3 -0.3 -1.4 -5.7 -2.4 -12 -1 -6.3 -2 -12.2 -2.3 -13 -0.3 -0.8 -0.5 -2.5 -0.4 -3.7 0.1 -1.3 -0.2 -2.3 -0.6 -2.3 -0.5 0 -1.7 -6.1 -2.7 -13.5 -1 -7.4 -2.2 -13.5 -2.5 -13.5 -0.4 0 -1.5 -6 -2.5 -13.2 -1.1 -7.3 -2.2 -13.5 -2.6 -13.8 -0.8 -0.6 -4 -22.9 -4 -27.7 0 -1.8 -0.4 -3.3 -0.8 -3.3 -0.5 0 -1.3 -3.8 -1.8 -8.5 l-0.9 -8.4 2.5 -0.6 c7.2 -1.5 45.2 -6.6 60.7 -8.2 13.3 -1.2 27.3 -1.7 55.3 -1.7 39.2 0 46.8 0.5 80.9 5.5 l15.2 2.3 -0.5 3 c-0.3 1.7 -0.8 6.1 -1.2 9.9 -0.4 3.7 -1.1 6.7 -1.5 6.7 -0.5 0 -0.9 1.5 -0.9 3.3 0 4.8 -3.2 27.1 -4 27.7 -0.4 0.3 -1.5 6.5 -2.6 13.8 -1 7.2 -2.1 13.2 -2.5 13.2 -0.3 0 -1.5 6.1 -2.5 13.5 -1 7.4 -2.2 13.5 -2.7 13.5 -0.4 0 -0.7 1 -0.6 2.3 0.1 1.2 -0.1 2.9 -0.4 3.7 -0.3 0.8 -1.3 6.7 -2.3 13 -1 6.3 -2.1 11.7 -2.4 12 -0.4 0.3 -1.5 6.1 -2.5 13 -1 6.9 -2.2 12.7 -2.5 13 -0.4 0.3 -1.5 6.1 -2.5 13 -1 6.9 -2.2 12.7 -2.6 13 -0.3 0.3 -1.5 6.2 -2.4 13.3 -1 7 -2.2 12.7 -2.8 12.7 -0.5 0 -0.7 1.1 -0.5 2.5 0.3 1.3 0.2 2.6 -0.1 2.7 -0.8 0.4 -4.4 25.8 -3.8 26.5 0.8 0.8 11.7 -1.9 11.7 -2.9 0 -0.5 0.5 -0.6 1.1 -0.3 0.5 0.4 2.6 -0.1 4.6 -1 2 -1 5.6 -1.8 7.9 -1.9 2.3 0 4 -0.4 3.8 -0.8 -0.3 -0.4 1.6 -1 4.1 -1.3 2.5 -0.4 4.5 -1.2 4.5 -1.7 0 -0.5 0.5 -0.6 1.1 -0.2 0.6 0.3 1.4 0.2 1.8 -0.3 0.3 -0.5 5.9 -2 12.4 -3.3 6.4 -1.2 11.7 -2.7 11.7 -3.2 0 -0.5 0.5 -0.6 1.1 -0.3 0.5 0.4 2.6 -0.1 4.5 -1 2.7 -1.2 3.8 -1.4 4.9 -0.5 1.1 0.9 1.1 1.8 -0.2 5.6 -0.8 2.4 -1.9 4.4 -2.5 4.4 -0.5 0 -0.6 0.5 -0.3 1 0.3 0.6 0.2 1 -0.3 1 -0.6 0 -1.6 2.3 -2.3 5 -0.7 2.8 -1.7 5 -2.1 5 -0.5 0 -0.6 0.5 -0.3 1 0.3 0.6 0.2 1 -0.3 1 -0.5 0 -1.2 1 -1.5 2.3 -0.8 3.6 -3.1 9.1 -4.4 10.4 -0.6 0.7 -1.7 2.9 -2.3 4.8 -0.6 1.9 -1.5 3.5 -1.9 3.5 -0.4 0 -1.6 2.5 -2.6 5.5 -1.1 3 -2.3 5.5 -2.8 5.5 -0.4 0 -0.5 0.5 -0.2 1 0.3 0.6 0.2 1 -0.3 1 -0.5 0 -1.7 2 -2.6 4.5 -1 2.5 -2.1 4.5 -2.5 4.5 -0.3 0 -1.5 2.3 -2.6 5 -1.1 2.8 -2.3 5 -2.7 5 -0.4 0 -1.2 1.8 -1.8 4 -0.6 2.1 -1.6 4.5 -2.3 5.2 -0.7 0.7 -2.2 3.4 -3.3 6 -1 2.7 -2.3 4.8 -2.7 4.8 -0.5 0 -0.5 0.5 -0.2 1 0.3 0.6 0.2 1 -0.4 1 -0.5 0 -1.5 1.6 -2.1 3.5 -0.6 1.9 -1.6 3.5 -2.1 3.5 -0.6 0 -0.7 0.5 -0.4 1 0.3 0.6 0.2 1 -0.2 1 -0.5 0 -1.7 2.3 -2.8 5 -1.1 2.8 -2.2 5 -2.6 5 -0.4 0 -1.4 1.9 -2.4 4.2 -0.9 2.4 -2 4.5 -2.3 4.8 -0.7 0.5 -5.5 10.3 -5.3 10.8 0.3 0.6 -2.5 3 -3.1 2.6 -0.3 -0.2 -0.4 0.4 -0.1 1.4 0.2 1.1 -0.3 2.6 -1.2 3.6 -0.9 0.9 -1.3 1.6 -0.8 1.6 0.4 0 0.4 0.4 -0.2 0.8 -0.5 0.4 -3 4.8 -5.5 9.7 -2.5 5 -4.8 9.2 -5.2 9.5 -0.3 0.3 -1.4 2.4 -2.3 4.8 -1 2.3 -2 4.2 -2.4 4.2 -0.4 0 -1.5 2.3 -2.6 5 -1.1 2.8 -2.3 5 -2.8 5 -0.4 0 -0.5 0.5 -0.2 1 0.3 0.6 0.2 1 -0.3 1 -0.5 0 -1.7 2 -2.6 4.5 -1 2.5 -2.1 4.5 -2.5 4.5 -0.3 0 -1.5 2.3 -2.6 5 -1.1 2.8 -2.3 5 -2.8 5 -0.4 0 -0.5 0.5 -0.2 1 0.3 0.6 0.2 1 -0.4 1 -0.5 0 -1.5 1.6 -2.1 3.5 -0.6 1.9 -1.6 3.5 -2.1 3.5 -0.5 0 -0.8 0.3 -0.7 0.8 0.1 0.4 -0.9 2.7 -2.2 5.2 -1.3 2.5 -2.3 4.8 -2.2 5.3 0.1 0.4 -0.2 0.7 -0.7 0.7 -0.5 0 -1.5 1.6 -2.1 3.5 -0.6 1.9 -1.7 4.1 -2.3 4.8 -1.4 1.4 -6.1 10.8 -6.2 12.2 0 0.6 -0.6 1.6 -1.2 2.3 -0.7 0.7 -1.3 2 -1.3 2.7 0 0.7 -0.6 2 -1.2 2.7 -1.4 1.4 -6.1 11 -5.8 11.7 0.1 0.2 -0.3 0.7 -0.8 1 -0.5 0.3 -1.3 2 -1.9 3.6 -1.3 3.9 -4 4.4 -5.3 1z"/>
  <path d="M22 920 c-1.7 -1.7 -2 -3.3 -2 -10.9 0 -5 0.5 -9.3 1 -9.6 0.6 -0.3 1 -2.7 1 -5.3 0 -2.6 0.9 -8.1 2 -12.2 1.1 -4.1 2 -8.7 2 -10.2 0 -1.6 0.5 -2.8 1 -2.8 0.6 0 1 -1.5 1 -3.4 0 -1.9 0.4 -3.7 0.9 -4 0.5 -0.3 1.2 -3.2 1.6 -6.3 0.4 -3.2 1.1 -6.3 1.6 -6.9 0.5 -0.6 1 -2 1.2 -3.2 0.2 -1.2 0.6 -2.5 1 -2.8 0.4 -0.4 0.7 -1.8 0.7 -3 0 -1.3 0.4 -2.5 0.9 -2.8 0.4 -0.3 1.1 -2.9 1.5 -5.7 0.4 -2.8 1.1 -5.8 1.6 -6.7 0.5 -1 1.9 -5.1 3 -9.2 1.2 -4.1 2.5 -8.4 3 -9.5 0.5 -1.1 1.4 -4.6 2.1 -7.8 0.7 -3.2 1.6 -6 2.1 -6.3 0.4 -0.3 0.8 -1.6 0.8 -2.9 0 -1.3 0.4 -2.6 0.9 -2.9 0.4 -0.3 1.4 -3.3 2 -6.5 0.7 -3.3 1.9 -6.7 2.7 -7.6 0.9 -0.8 1.2 -1.5 0.8 -1.5 -0.3 0 -0.2 -0.6 0.4 -1.2 0.5 -0.7 1.3 -2.9 1.8 -4.8 1 -4.6 1.1 -4.9 1.4 -5.7 0.1 -0.5 0.2 -1.1 0.1 -1.5 0 -0.5 0.3 -0.8 0.8 -0.8 0.5 0 1.1 -1.8 1.5 -4 0.3 -2.2 1 -4 1.4 -4 0.4 0 1.3 -2.4 2 -5.4 0.7 -3 2.4 -7.5 3.8 -10.2 1.4 -2.6 2.3 -5.3 2 -6 -0.3 -0.7 -0.1 -1.4 0.4 -1.6 0.5 -0.2 1.5 -2.5 2.2 -5.3 0.7 -2.7 2.1 -5.9 3 -6.9 1 -1 1.5 -2.3 1.2 -2.7 -0.2 -0.4 0 -1 0.6 -1.4 0.5 -0.3 1 -1.3 1 -2.1 0 -0.9 1.1 -4 2.5 -7 1.4 -3 2.5 -6.3 2.5 -7.4 0 -1 0.4 -2.1 0.9 -2.5 0.5 -0.3 1.7 -2.8 2.6 -5.5 0.9 -2.8 2 -5 2.4 -5 0.4 0 1.3 -2.4 2 -5.4 0.7 -3 1.5 -5.6 1.9 -5.8 1.1 -0.5 7.3 -13.9 10.8 -23.3 1 -2.7 2.1 -5.2 2.5 -5.5 0.4 -0.3 1.2 -2.4 1.9 -4.7 0.7 -2.4 1.8 -4.3 2.3 -4.3 0.6 0 0.7 -0.3 0.4 -0.6 -0.4 -0.4 0.2 -1.9 1.2 -3.3 1 -1.4 2.6 -4.8 3.6 -7.6 1.1 -2.7 2.4 -5.9 3.1 -7 0.6 -1.1 1.7 -3.7 2.4 -5.7 0.6 -2.1 1.7 -4.1 2.4 -4.5 0.6 -0.5 1.8 -2.7 2.6 -5 0.7 -2.4 1.7 -4.3 2.1 -4.3 0.5 0 0.6 -0.7 0.3 -1.5 -0.4 -0.8 -0.1 -1.5 0.5 -1.5 0.6 0 1.1 -0.7 1.1 -1.5 0 -0.8 0.5 -1.5 1.1 -1.5 0.6 0 0.8 -0.7 0.5 -1.5 -0.3 -0.9 0.1 -1.8 0.9 -2.1 0.8 -0.4 1.5 -1 1.5 -1.5 0 -0.5 0.7 -2.6 1.7 -4.7 0.9 -2 1.5 -4.1 1.4 -4.5 0 -0.4 0.6 -1 1.4 -1.3 0.8 -0.4 1.5 -1 1.5 -1.4 0 -0.5 0.5 -2.1 1.2 -3.7 0.6 -1.5 1.2 -3.2 1.2 -3.6 0.1 -0.4 0.6 -1.1 1.1 -1.5 0.6 -0.4 1.9 -2.5 3 -4.7 1.1 -2.2 2.2 -4.2 2.5 -4.5 0.9 -0.8 4 -7.7 4 -8.9 0 -0.6 0.4 -1.1 0.9 -1.1 0.5 0 1.2 -1.4 1.6 -3 0.4 -1.6 1 -3 1.4 -3 0.4 0 1.3 -1.6 2.1 -3.5 0.8 -1.9 1.7 -3.5 2.1 -3.5 0.4 0 1 -1.4 1.4 -3 0.4 -1.6 1.1 -3 1.6 -3 0.5 0 1.4 -1.1 1.9 -2.5 0.5 -1.4 1.4 -2.5 2 -2.5 0.5 0 1 -0.5 1 -1.1 0 -1.7 4.1 -10.2 6.5 -13.4 1.3 -1.6 2.6 -4 3 -5.3 0.3 -1.2 1.7 -3.4 3.1 -4.9 1.3 -1.4 2.4 -3.4 2.4 -4.4 0 -1.1 0.5 -1.9 1 -1.9 0.6 0 1 -0.7 1 -1.5 0 -0.8 0.3 -1.5 0.8 -1.5 0.4 0 1.5 -1.7 2.5 -3.7 2.6 -5.5 5.1 -9.8 6 -10.1 0.4 -0.2 0.7 -1 0.7 -1.7 0 -0.8 0.6 -1.8 1.3 -2.2 0.6 -0.4 1.9 -2.1 2.7 -3.8 0.8 -1.6 2.5 -4.4 3.7 -6.1 1.3 -1.7 2.3 -3.6 2.3 -4.2 0 -0.7 0.5 -1.2 1 -1.2 0.6 0 1 -0.6 1 -1.4 0 -0.7 0.7 -1.9 1.5 -2.6 0.8 -0.7 1.2 -1.6 0.9 -2.1 -0.3 -0.5 0.2 -1.2 1 -1.5 0.9 -0.3 1.6 -1 1.6 -1.6 0 -0.5 1.1 -2.4 2.5 -4.2 1.4 -1.8 2.5 -3.8 2.5 -4.4 0 -0.6 0.6 -1.5 1.2 -1.9 1.5 -0.9 3.6 -4.1 4.4 -6.5 0.4 -1 0.9 -1.8 1.3 -1.8 0.4 0 1.3 -1.6 2.1 -3.5 0.7 -1.9 1.9 -3.6 2.7 -3.9 0.7 -0.3 1.3 -1.2 1.3 -2 0 -0.8 0.6 -1.9 1.3 -2.3 1.4 -0.9 3.2 -3.7 4.7 -7 0.5 -1.3 1.4 -2.3 2 -2.3 0.5 0 1 -0.7 1 -1.5 0 -0.8 0.5 -1.5 1 -1.5 0.6 0 1 -0.7 1 -1.5 0 -0.8 0.9 -2 2 -2.7 1.1 -0.7 2 -1.8 2 -2.4 0 -0.7 1.3 -2.6 3 -4.4 1.7 -1.8 3 -3.7 3 -4.3 0 -0.5 1.6 -2.9 3.5 -5.3 1.9 -2.3 3.5 -4.7 3.5 -5.3 0 -0.6 0.5 -1.1 1 -1.1 0.6 0 1.4 -0.8 1.7 -1.7 0.4 -1 2.4 -3.6 4.5 -5.8 2.1 -2.1 3.8 -4.3 3.8 -4.8 0 -0.6 1.6 -2.9 3.5 -5.3 1.9 -2.3 3.5 -4.6 3.5 -5.1 0 -0.6 1.1 -1.6 2.5 -2.3 1.4 -0.7 2.5 -1.9 2.5 -2.5 0 -0.7 0.9 -2 2 -3 1.1 -1 2 -2.4 2 -3.1 0 -0.8 0.9 -1.9 2 -2.6 1.1 -0.7 2 -1.7 2 -2.3 0 -0.5 1.6 -2.1 3.5 -3.5 1.9 -1.4 3.3 -2.9 3.1 -3.5 -0.1 -0.5 0.8 -1.8 2.1 -2.8 1.3 -1 2.3 -2.4 2.3 -3.2 0 -0.7 1.1 -2 2.5 -2.9 1.4 -0.9 2.5 -2.2 2.5 -2.9 0 -0.6 1.6 -2.2 3.5 -3.5 1.9 -1.2 3.5 -2.9 3.5 -3.7 0 -0.8 1.4 -2.4 3 -3.7 1.7 -1.2 3 -2.8 3 -3.5 0 -0.7 1.8 -2.6 4 -4.1 2.1 -1.5 4 -3.4 4 -4.2 0.1 -0.8 1.9 -2.8 4 -4.5 2.1 -1.6 3.9 -3.3 4 -3.8 0 -0.9 15.2 -15.9 20.7 -20.5 2.4 -1.9 4.3 -4 4.3 -4.7 0 -1.1 3 -3.7 18.3 -15.9 8.8 -6.9 13.7 -11.4 13.7 -12.6 0 -1.5 13.2 -12 15.1 -12 1 0 1.9 -0.4 2.1 -0.8 0.5 -1.4 25.7 -22.2 26.8 -22.2 1.3 0 13 -9.1 13 -10.2 0 -0.4 0.7 -0.8 1.6 -0.8 1.5 0 9.5 -5.7 10.2 -7.2 0.2 -0.5 1.1 -0.8 2 -0.8 1 -0.1 3.3 -1.4 5.2 -3 1.9 -1.7 3.8 -3 4.4 -3 0.5 0 2.3 -1.1 4 -2.4 1.7 -1.3 4.1 -2.6 5.2 -3 1.2 -0.3 2.9 -1.5 3.9 -2.6 1 -1.1 2.4 -2 3.1 -2 0.7 0 2.8 -1.4 4.6 -3 1.8 -1.7 4 -3 4.9 -3 0.9 0 2.2 -0.7 2.9 -1.5 0.6 -0.8 2.2 -1.7 3.3 -2.1 1.2 -0.3 3.2 -1.6 4.5 -2.7 1.2 -1.1 2.2 -1.7 2.2 -1.3 0 0.5 1.5 -0.3 3.4 -1.8 1.9 -1.4 4.1 -2.6 4.9 -2.6 0.8 0 2 -0.7 2.7 -1.5 0.7 -0.8 2 -1.5 3 -1.5 1 0 2.4 -0.7 3.1 -1.6 0.7 -0.9 2.2 -2 3.4 -2.5 1.1 -0.5 2.7 -1.3 3.5 -1.7 4 -2.3 6.1 -3.2 7.4 -3.2 0.7 0 1.9 -0.7 2.6 -1.4 0.6 -0.8 3.3 -2.5 5.8 -3.6 2.6 -1.2 6.3 -3 8.2 -4 1.9 -1 5.1 -2.6 7 -3.5 1.9 -0.9 4.2 -2.1 5 -2.6 0.8 -0.5 2.2 -1.2 3 -1.5 3.9 -1.5 6.6 -2.7 8 -3.5 0.8 -0.5 3.1 -1.6 5 -2.5 1.9 -0.9 5.2 -2.4 7.3 -3.5 2.2 -1 4.3 -1.7 4.7 -1.4 0.5 0.3 1.2 0 1.5 -0.5 0.8 -1.3 5.6 -3.4 6.9 -3.1 0.5 0.1 1.6 -0.5 2.5 -1.3 0.9 -0.8 3 -1.8 4.6 -2.2 1.7 -0.4 3.5 -0.9 4 -1.3 0.6 -0.3 2.1 -0.7 3.5 -0.9 1.4 -0.1 3 -0.9 3.5 -1.6 0.6 -0.7 2.5 -1.7 4.3 -2 1.7 -0.4 3.4 -1.2 3.7 -1.7 0.4 -0.5 1.9 -0.9 3.4 -0.9 1.5 0 3.1 -0.4 3.7 -1 0.5 -0.5 2.2 -1.1 3.8 -1.2 1.5 -0.1 3.2 -0.8 3.8 -1.5 0.6 -0.7 2.1 -1.3 3.3 -1.3 1.3 0 3.6 -0.7 5.1 -1.5 1.6 -0.8 4 -1.5 5.4 -1.5 1.5 0 3 -0.4 3.6 -1 0.5 -0.5 2.5 -1.2 4.4 -1.4 1.9 -0.3 5.8 -1.2 8.5 -2.1 2.8 -0.9 6.6 -1.8 8.5 -2.1 1.9 -0.3 5.8 -0.9 8.5 -1.4 8.7 -1.6 15.9 -2.5 17.9 -2.2 1 0.1 2.4 -0.2 3 -0.7 2.9 -2.4 67.6 -3.1 71.3 -0.8 0.7 0.4 4.9 1 9.5 1.4 4.6 0.3 8.8 0.9 9.3 1.2 0.6 0.4 2.5 0.8 4.3 1 3 0.2 7.7 1.4 28 6.6 2.9 0.7 5.8 1.8 6.5 2.3 0.7 0.5 2.6 1.2 4.2 1.6 1.7 0.4 7.1 2.7 12.2 5.2 5 2.4 9.6 4.4 10.2 4.4 0.6 0 1.1 0.4 1.1 0.9 0 0.5 1.8 1.1 4 1.5 2.2 0.3 4 1 4 1.4 0 0.4 2.1 1.8 4.8 3 6.8 3.4 10.7 5.6 11 6.5 0.2 0.4 0.9 0.7 1.6 0.7 0.7 0 2.1 0.9 3.1 2 1 1.1 2.2 2 2.8 2 0.5 0 3.3 2.4 6.2 5.3 5.6 5.4 8 7.4 10.5 8.3 0.8 0.3 2.4 1.9 3.5 3.4 1.7 2.5 6.4 8.4 22.5 28.2 1.7 2 3 4.3 3 5 0.1 0.7 1.4 2.9 3 4.8 1.7 1.9 3 4 3 4.7 0 0.7 1 2.4 2.2 3.8 1.2 1.4 2.3 3.2 2.4 4.1 0.1 0.9 1 2.4 1.8 3.3 0.9 1 1.6 2.3 1.6 3 0 0.7 0.9 2.4 2 3.8 1.1 1.4 2 3.1 2 3.8 0 0.7 0.7 1.8 1.5 2.5 0.8 0.7 1.5 1.9 1.5 2.8 0 0.8 0.6 2.3 1.4 3.1 0.8 0.9 1.6 3 1.9 4.6 0.3 1.7 1 4.2 1.6 5.8 0.6 1.5 0.8 2.7 0.5 2.7 -0.3 0 0.1 1.2 1 2.8 1.9 3.7 6.9 24.9 8.2 35.2 0.2 1.9 1 5.1 1.6 7 1.7 5.3 1.6 63.3 -0.2 65.5 -0.4 0.6 -1.1 4.4 -1.5 8.5 -0.6 6.5 -3.9 23.9 -6.6 35 -0.5 1.9 -1.4 6 -2.1 9 -0.7 3 -1.6 6 -2 6.5 -0.3 0.6 -0.9 2.8 -1.3 5 -0.4 2.2 -1.1 4.5 -1.5 5 -0.4 0.6 -1.3 3.4 -2.1 6.2 -0.7 2.9 -1.6 5.3 -2 5.3 -0.4 0 -1 1 -1.4 2.3 -0.4 1.2 -0.8 2.4 -1 2.7 -0.1 0.3 -0.5 1.4 -0.9 2.5 -1.4 3.7 -5.8 14 -7.7 18.1 -1 2.2 -1.9 4.6 -1.9 5.2 0 0.7 -0.4 1.2 -0.9 1.2 -0.8 0 -2.4 3.7 -2.2 5.3 0.1 0.4 -0.3 0.7 -0.8 0.7 -0.5 0 -1.1 0.8 -1.5 1.8 -0.3 0.9 -2.4 4.9 -4.5 8.7 -2.2 3.9 -5 9 -6.2 11.5 -1.3 2.5 -2.6 4.7 -2.9 5 -1 0.8 -5.5 8.4 -5.5 9.3 0 0.4 -0.5 1.1 -1.1 1.5 -0.5 0.4 -1.8 2.4 -2.8 4.5 -1 2.1 -2.4 4.1 -3.2 4.4 -0.8 0.3 -1.4 1.1 -1.4 1.9 0 0.8 -0.4 1.4 -1 1.4 -0.5 0 -1 0.9 -1 2 0 1.1 -0.7 2.3 -1.5 2.6 -0.8 0.4 -1.2 1 -0.9 1.5 0.3 0.5 -0.2 1.2 -1 1.5 -0.9 0.3 -1.6 1.2 -1.6 1.9 0 0.6 -0.9 2 -1.9 2.9 -1.1 1 -2.7 3.3 -3.6 5.2 -0.9 1.9 -2 3.4 -2.5 3.4 -0.6 0 -1 0.5 -1 1.1 0 0.7 -2.5 4.2 -5.5 8 -3 3.7 -5.5 7.1 -5.5 7.5 0 0.3 -1.3 2.3 -3 4.4 -1.6 2.1 -3 4.1 -3 4.4 0 0.4 -2 2.8 -4.5 5.4 -2.5 2.6 -4.5 5.2 -4.5 6 0 0.7 -0.7 1.5 -1.5 1.8 -0.8 0.4 -1.5 1.2 -1.5 2 0 0.8 -0.9 1.9 -2 2.6 -1.1 0.7 -2 2 -2 2.9 0 0.8 -1.1 2.2 -2.5 2.9 -1.4 0.7 -2.5 1.9 -2.5 2.6 0 0.6 -1.1 1.9 -2.5 2.8 -1.4 0.9 -2.5 2.3 -2.5 3.1 0 0.7 -1.1 2.2 -2.5 3.3 -1.4 1.1 -2.5 2.4 -2.5 3 0 0.5 -1.1 1.7 -2.5 2.6 -1.4 0.9 -2.5 2.3 -2.5 3.1 0 0.7 -0.4 1.7 -1 2 -0.6 0.4 -0.7 -0.2 -0.1 -1.7 0.4 -1.3 1.6 -7.7 2.6 -14.3 0.9 -6.6 2.3 -14 3.1 -16.5 0.7 -2.5 2.1 -9.4 2.9 -15.5 0.8 -6 2.2 -13.5 3 -16.5 2.1 -8.4 4.2 -19.6 7.5 -40 1.6 -10.2 3.6 -22.8 4.5 -28 3.1 -18.5 1.7 -29.7 -4.8 -38.2 -6 -7.9 -10.3 -9.6 -30.9 -12.9 -35.8 -5.6 -47.2 -6.4 -86.8 -6.4 -44.3 0.1 -68.5 2.1 -113.4 9.4 -18.5 3.1 -25.8 7.7 -31.4 19.9 -2.9 6.5 -3.1 13.6 -0.8 27.7 0.9 5 2.7 16.9 4.1 26.5 1.4 9.6 3.2 19.8 4 22.5 0.7 2.8 1.7 7.5 2.1 10.5 0.3 3 1 6.5 1.5 7.8 0.5 1.3 1.8 8.4 3 15.9 1.1 7.4 2.4 14.6 2.9 15.9 0.5 1.3 1.9 8.3 3 15.6 1.2 7.3 2.5 14.6 3.1 16.2 0.5 1.6 1.6 7.5 2.5 13 0.8 5.6 1.9 11.5 2.5 13.2 1.2 3.9 4.8 25.8 4.3 26.3 -0.5 0.5 -11.4 -2 -21.4 -5 -5 -1.5 -10.2 -2.2 -15.6 -2.2 -10.2 0 -15.3 2.3 -22.3 9.9 -6.2 6.7 -9.3 14.5 -9.3 23.2 0 5.4 0.6 7.5 4.5 15.5 2.4 5 4.8 10.3 5.2 11.7 0.4 1.4 1.5 3.9 2.5 5.6 0.9 1.7 2.3 4.8 3 7 0.7 2.1 3.2 7.4 5.5 11.6 2.4 4.3 4.7 8.8 5 10 0.4 1.3 1.9 4.3 3.3 6.8 1.4 2.5 6.5 12.3 11.3 21.8 8.6 17.1 8.7 17.4 6.8 19.3 -1 1 -2.3 1.9 -2.7 1.9 -1.4 0 -7.1 3 -7.7 4.1 -0.4 0.5 -1.4 0.9 -2.4 0.9 -1 0 -2.6 0.9 -3.5 1.9 -1 1.1 -2.3 1.7 -3 1.5 -0.7 -0.3 -1.9 0.2 -2.6 1.1 -0.7 0.8 -1.9 1.5 -2.6 1.5 -1.6 0 -4.9 1.7 -7.6 3.8 -0.9 0.8 -2.1 1.1 -2.6 0.8 -0.5 -0.3 -1.7 0.3 -2.7 1.4 -1 1.1 -2.1 1.7 -2.6 1.5 -0.4 -0.3 -1 -0.1 -1.4 0.5 -0.3 0.5 -1.4 1 -2.4 1 -1 0 -2.4 0.7 -3.1 1.5 -0.7 0.9 -1.5 1.3 -1.8 1.1 -0.2 -0.3 -2.4 0.6 -4.7 1.9 -2.4 1.3 -4.6 2.1 -5 1.7 -0.4 -0.4 -1.3 0.1 -2 1.1 -0.7 1 -1.9 2 -2.7 2.1 -1.2 0.3 -2 0.6 -6.5 2.3 -1 0.3 -2.2 0.5 -2.6 0.4 -0.4 -0.1 -1.5 0.6 -2.3 1.4 -0.9 0.8 -1.9 1.3 -2.4 1 -0.4 -0.3 -1.3 0.2 -2 1 -0.7 0.8 -2.1 1.5 -3.1 1.5 -1.1 0 -1.9 0.5 -1.9 1 0 0.6 -0.7 1 -1.6 1 -1.5 0 -6.6 2 -10.6 4.1 -1 0.5 -2.5 0.9 -3.3 0.9 -0.8 0 -1.5 0.5 -1.5 1 0 0.6 -0.8 1 -1.8 1 -1 0 -2.2 0.3 -2.6 0.8 -0.4 0.4 -1.1 0.7 -1.4 0.8 -0.9 0.1 -3.9 1.3 -7.9 3 -1.7 0.8 -3.8 1.4 -4.6 1.4 -0.9 0 -1.9 0.5 -2.2 1 -0.3 0.6 -1.5 1 -2.6 1 -1 0 -1.9 0.5 -1.9 1 0 0.6 -0.8 1 -1.7 1 -1 0 -2.9 0.6 -4.3 1.3 -1.4 0.7 -4.7 1.9 -7.5 2.7 -2.7 0.7 -6.5 2.2 -8.3 3.2 -1.8 1 -4.1 1.8 -5.2 1.8 -1.1 0 -3.5 0.9 -5.5 2 -2 1.1 -4.6 2 -6 2 -1.3 0 -2.7 0.5 -3 1 -0.3 0.6 -1.5 1 -2.6 1 -1 0 -1.9 0.5 -1.9 1 0 0.6 -1.3 1 -2.8 1 -1.5 0 -3.2 0.4 -3.7 0.9 -0.6 0.4 -3.2 1.4 -6 2.1 -2.7 0.8 -6.1 1.9 -7.4 2.6 -1.3 0.7 -3 1 -3.7 0.7 -0.8 -0.3 -1.7 0.2 -2 1.1 -0.3 0.9 -1 1.3 -1.5 1 -0.5 -0.3 -2.3 0.2 -4.1 1 -5.2 2.3 -13.8 4.9 -16.4 4.9 -1.3 0 -2.4 0.3 -2.4 0.7 0 0.4 -2.1 1.3 -4.7 2 -2.7 0.7 -5.2 1.7 -5.8 2.1 -0.5 0.5 -1.8 0.9 -2.8 0.9 -2.2 0 -14.6 3.5 -19.2 5.5 -3 1.2 -9.6 2.9 -16.7 4.1 -2.1 0.3 -3.8 1.1 -3.8 1.6 0 0.6 -0.6 0.8 -1.4 0.5 -0.7 -0.3 -1.8 -0.1 -2.2 0.3 -0.5 0.5 -2.7 1.2 -4.8 1.6 -2.2 0.3 -5 1 -6.3 1.5 -1.3 0.5 -2.3 0.7 -2.3 0.4 0 -0.2 -1.5 0.1 -3.2 0.6 -1.8 0.5 -4.9 1.2 -6.8 1.5 -1.9 0.3 -3.7 0.9 -4 1.3 -0.3 0.3 -0.9 0.6 -1.5 0.7 -2 0.1 -9.1 1.6 -13.5 2.9 -2.5 0.7 -7.2 1.8 -10.5 2.5 -3.3 0.7 -8.8 2.1 -12.3 3.2 -3.4 1.1 -6.8 1.8 -7.5 1.5 -0.6 -0.2 -2.2 -0.1 -3.3 0.4 -1.2 0.4 -4.1 1.1 -6.4 1.4 -2.3 0.3 -5.2 1 -6.5 1.5 -1.3 0.5 -2.5 0.6 -2.8 0.4 -0.3 -0.3 -3.6 0.4 -7.3 1.5 -3.7 1.1 -7 1.8 -7.4 1.6 -0.4 -0.2 -2.8 0.2 -5.4 1 -2.7 0.8 -5.2 1.3 -5.6 1 -0.4 -0.2 -2.4 0 -4.5 0.6 -2.1 0.6 -5.4 1.2 -7.4 1.4 -3.9 0.4 -5.8 0.8 -8.1 1.9 -1.4 0.6 -17.8 3 -28 4.1 -6.8 0.7 -11 1.4 -16.5 2.4 -2.7 0.6 -8.8 1.3 -13.4 1.6 -4.6 0.3 -8.7 0.8 -9.1 1 -0.4 0.3 -5 0.8 -10.1 1.1 -13 0.9 -13.4 0.9 -14.6 1.7 -0.6 0.4 -5.1 0.9 -10 1.2 -24.4 1.3 -35.5 1.8 -42.5 1.7 -4.3 0 -7.8 0.3 -7.8 0.7 0 0.3 -6.5 0.7 -14.5 0.9 -13.4 0.3 -14.6 0.1 -16.5 -1.8z"/>
 </g>
</svg>