<?xml version="1.0" encoding="UTF-8" standalone="no"?>
<!DOCTYPE svg PUBLIC "-//W3C//DTD SVG 20010904//EN"
              "http://www.w3.org/TR/2001/REC-SVG-20010904/DTD/svg10.dtd">

<svg xmlns="http://www.w3.org/2000/svg"
     width="1.08889in" height="1.03333in"
     viewBox="0 0 98 93">
  <path id="インポートされたパス"
        fill="#fff" stroke="#fff" stroke-width="1"
        d="M 83.61,52.43
           C 83.61,52.43 80.96,35.19 80.96,35.19
             80.96,35.19 69.06,29.44 69.06,29.44
             69.06,29.44 67.73,52.43 67.73,52.43
             67.73,52.43 55.65,53.13 55.65,53.13
             55.65,53.13 74.35,90.36 74.35,90.36
             74.35,90.36 94.84,53.79 94.84,53.79
             94.84,53.79 83.61,52.43 83.61,52.43 Z
           M 66.49,70.67
           C 32.97,87.56 0.00,81.53 0.00,81.53
             0.00,81.53 5.03,46.21 27.04,20.19
             47.90,-4.42 82.62,-4.60 93.52,9.33
             104.41,23.26 95.44,56.09 66.49,70.67 Z" />
</svg>
